<svg width="45" height="45" viewBox="0 0 45 45" fill="none" xmlns="http://www.w3.org/2000/svg">
<path d="M35.7393 8.49815C36.5459 8.12503 37.3802 8.95928 37.0071 9.76586L31.0874 22.5623C30.9698 22.8167 30.9698 23.1099 31.0874 23.3642L37.0071 36.1606C37.3802 36.9672 36.5459 37.8015 35.7393 37.4283L22.9429 31.5087C22.6886 31.3911 22.3954 31.3911 22.141 31.5087L9.34457 37.4283C8.53798 37.8015 7.70374 36.9672 8.07686 36.1606L13.9965 23.3642C14.1141 23.1099 14.1141 22.8167 13.9965 22.5623L8.07686 9.76586C7.70374 8.95928 8.53799 8.12503 9.34457 8.49815L22.141 14.4178C22.3954 14.5354 22.6886 14.5354 22.9429 14.4178L35.7393 8.49815Z" fill="#014839"/>
<path d="M22.542 0.963257L23.6595 17.4055C23.8214 19.7875 25.7177 21.6839 28.0997 21.8458L44.542 22.9633L28.0997 24.0808C25.7177 24.2426 23.8214 26.139 23.6595 28.521L22.542 44.9633L21.4245 28.521C21.2626 26.139 19.3662 24.2426 16.9842 24.0808L0.541962 22.9633L16.9843 21.8458C19.3662 21.6839 21.2626 19.7875 21.4245 17.4055L22.542 0.963257Z" fill="white"/>
</svg>
